<svg height="92" viewBox="0 0 85 92" width="85" xmlns="http://www.w3.org/2000/svg" xmlns:xlink="http://www.w3.org/1999/xlink"><mask id="a" fill="#fff"><path d="m0 0h85v92h-85z" fill="#fff" fill-rule="evenodd"/></mask><path d="m59.5542553 25.8321569-17.0542553-11.9058824-17.0524468 11.9058824-2.0635106-2.9584314 19.1159574-13.34901962 19.117766 13.34901962zm0 16.2352941-17.0542553-11.9058824-17.0524468 11.9058824-2.0635106-2.9584314 19.1159574-13.3490196 19.117766 13.3490196zm1.0308511 37.305098-8.1382979 3.6078432v-16.2352942h-19.893617v16.2352942l-9.0425532-3.6078432v-25.2549019l18.9893617-13.5294118 18.0851064 12.627451zm-22.606383 5.4117647h9.0425532v-12.627451h-9.0425532zm36.0815957-59.0423529c-1.9712765-2.0564706-4.179468-3.8964706-6.5829787-5.5380392l-24.0730851-20.2039216-25.1744681 19.734902c-1.8428723 1.2086274-3.3439361 3.2109804-4.9010638 4.852549l1.2297872-1.2266667c-7.16170209 7.36-14.5585106 18.8870588-14.5585106 28.9529412 0 21.919451 19.0255319 39.6862745 42.5 39.6862745 23.4762766 0 42.5-17.7668235 42.5-39.6862745 0-10.2101961-4.1414894-19.5364706-10.9396809-26.5717647z" fill="#4ca1ff" fill-rule="evenodd" mask="url(#a)"/></svg>