<?xml version="1.0" encoding="UTF-8"?>
<svg width="683px" height="127px" viewBox="0 0 683 127" version="1.1" xmlns="http://www.w3.org/2000/svg" xmlns:xlink="http://www.w3.org/1999/xlink">
    <!-- Generator: Sketch 62 (91390) - https://sketch.com -->
    <title>dwellingly_logo</title>
    <desc>Created with Sketch.</desc>
    <g id="Page-1" stroke="none" stroke-width="1" fill="none" fill-rule="evenodd">
        <g id="Artboard" transform="translate(-4.000000, -1.000000)" fill="#053D6F" fill-rule="nonzero">
            <g id="dwellingly_logo" transform="translate(4.000000, 1.000000)">
                <g id="Group" transform="translate(341.500000, 63.500000) scale(-1, 1) rotate(-180.000000) translate(-341.500000, -63.500000) ">
                    <path d="M346.797904,126.425989 C344.041562,125.672599 342.03695,124.560452 340.533491,122.874294 C338.600472,120.793503 337.777149,119.071469 337.240199,115.986158 C336.667453,112.829096 337.204403,109.851412 338.851048,107.124859 C340.96305,103.573164 344.685901,101.635876 349.983805,101.277119 C357.93066,100.738983 363.371751,104.577684 364.76782,111.752825 C365.483753,115.412147 364.087683,120.219492 361.474528,122.981921 C358.36022,126.282486 351.809434,127.825141 346.797904,126.425989 Z" id="Path"></path>
                    <path d="M49.6857442,120.614124 C49.1487945,120.004237 49.0772013,118.64096 49.0772013,108.237006 C49.0772013,101.420621 48.9340147,96.469774 48.7550314,96.3262712 C48.5760482,96.2186441 47.6095388,96.6132768 46.6072327,97.2231638 C42.2042453,99.8062147 36.0114256,100.882486 29.2816562,100.200847 C27.0622642,99.9855932 24.8428721,99.6268362 24.3775157,99.4474576 C23.8763627,99.2322034 22.7666667,98.8734463 21.8717505,98.6223164 C16.0011006,96.9361582 9.52190776,91.8059322 5.72746331,85.9223164 C4.546174,84.020904 2.64895178,80.0745763 2.32678197,78.7471751 C2.18359539,78.1372881 1.96881551,77.5274011 1.82562893,77.3121469 C1.68244235,77.1327684 1.46766247,76.3793785 1.36027254,75.6977401 C1.21708595,75.0161017 0.894916143,73.150565 0.572746331,71.5720339 C-0.357966457,66.4418079 -0.0715932914,56.9706215 1.18128931,52.1991525 C3.22169811,44.45 6.12122642,39.2838983 10.9179769,34.8353107 C11.6697065,34.1177966 12.4930294,33.3644068 12.7436059,33.1132768 C14.4976415,31.4271186 19.1154088,29.0951977 23.3036164,27.8754237 C33.6846436,24.790113 44.8174004,26.6915254 52.7284591,32.8621469 C53.8381551,33.7231638 54.8046646,34.440678 54.8762579,34.440678 C55.0552411,34.440678 56.7018868,30.8531073 57.0956499,29.669209 C57.2030398,29.3463277 57.7041929,28.8799435 58.2053459,28.700565 C59.4582285,28.2341808 73.2757338,28.2341808 74.1706499,28.700565 C74.8507862,29.0951977 74.8507862,29.9562147 74.8507862,74.8008475 C74.8507862,119.64548 74.8507862,120.506497 74.1706499,120.90113 C73.7052935,121.116384 69.1591195,121.259887 61.8566038,121.259887 C51.0818134,121.259887 50.2226939,121.224011 49.6857442,120.614124 Z M41.7030922,78.1372881 C44.459434,77.3480226 47.287369,74.980226 48.397065,72.540678 C49.0414046,71.1056497 49.1129979,70.3163842 49.005608,62.8542373 L48.898218,54.710452 L47.7169287,53.0242938 C46.3566562,51.0511299 44.2446541,49.5084746 41.7746855,48.6833333 C39.5552935,47.9299435 38.195021,47.9299435 35.9756289,48.6833333 C29.8901992,50.7282486 26.9190776,56.2889831 27.3128407,64.8632768 C27.5276205,68.630226 27.6708071,69.3477401 29.1384696,72.3612994 C29.9975891,74.1909605 32.3601677,76.6305085 33.8636268,77.2762712 C34.4721698,77.5274011 35.3312893,77.9220339 35.8324423,78.1372881 C37.0495283,78.639548 39.91326,78.6754237 41.7030922,78.1372881 Z" id="Shape"></path>
                    <path d="M267.75891,120.65 C267.32935,120.183616 267.257757,112.613842 267.257757,74.5855932 C267.257757,49.580226 267.400943,28.9875706 267.54413,28.8081921 C267.723113,28.6646893 273.343187,28.5211864 280.037159,28.5211864 C291.671069,28.5211864 292.208019,28.5570621 292.709172,29.2028249 C293.138732,29.8127119 293.210325,36.5932203 293.210325,74.8725989 C293.210325,119.358475 293.210325,119.824859 292.494392,120.542373 C291.814256,121.224011 291.313103,121.259887 280.001363,121.259887 C269.512945,121.259887 268.18847,121.188136 267.75891,120.65 Z" id="Path"></path>
                    <path d="M303.125996,120.614124 C302.553249,120.004237 302.517453,116.30904 302.517453,74.6932203 C302.517453,33.6155367 302.553249,29.4180791 303.090199,28.8799435 C303.591352,28.3776836 305.023218,28.3418079 315.654822,28.4135593 C327.038155,28.5211864 327.646698,28.5570621 328.147851,29.2028249 C328.577411,29.8127119 328.649004,36.629096 328.649004,74.8725989 L328.649004,119.788983 L327.861478,120.542373 C327.109748,121.224011 326.644392,121.259887 315.404245,121.259887 C304.522065,121.259887 303.662945,121.224011 303.125996,120.614124 Z" id="Path"></path>
                    <path d="M567.770597,120.470621 C567.054665,119.681356 567.054665,119.466102 567.054665,74.8008475 C567.054665,36.5932203 567.126258,29.8127119 567.555818,29.2028249 C568.056971,28.5570621 568.59392,28.5211864 580.299423,28.5211864 C590.752044,28.5211864 592.541876,28.5929379 592.828249,29.059322 C593.043029,29.3822034 593.186216,46.889548 593.186216,74.6214689 C593.186216,114.80226 593.114623,119.753107 592.61347,120.470621 C592.07652,121.259887 592.07652,121.259887 580.299423,121.259887 C568.629717,121.259887 568.522327,121.259887 567.770597,120.470621 Z" id="Path"></path>
                    <path d="M408.833491,118.856215 C407.544811,117.779944 405.540199,116.022034 404.35891,115.017514 C403.177621,114.012994 401.566771,112.577966 400.743449,111.860452 L399.275786,110.497175 L389.216929,110.497175 L379.158071,110.497175 L379.050681,101.671751 L378.943291,92.8463277 L378.048375,92.1288136 C377.547222,91.7341808 376.18695,90.5861582 375.041457,89.5816384 C373.895964,88.5412429 372.714675,87.5725989 372.428302,87.3573446 C372.034539,87.070339 371.962945,82.2629944 372.034539,58.5491525 L372.141929,30.0997175 L384.098008,30.1355932 C390.648795,30.1355932 396.197275,30.2432203 396.340461,30.3508475 C396.519444,30.4584746 396.662631,40.790678 396.662631,53.3112994 L396.662631,76.0923729 L397.664937,77.0610169 C398.237683,77.5991525 399.454769,78.6754237 400.421279,79.4646893 C401.387788,80.2539548 402.318501,81.079096 402.533281,81.2584746 C402.748061,81.4737288 403.965147,82.5141243 405.253826,83.5903955 C406.542505,84.6666667 407.831184,85.8146893 408.117558,86.1016949 C409.406237,87.429096 411.088679,88.6129944 411.625629,88.6129944 C411.947799,88.6129944 412.950105,87.9313559 413.845021,87.070339 C415.169497,85.8146893 422.686792,79.2853107 425.944287,76.5587571 L426.731813,75.9129944 L426.731813,53.0601695 C426.731813,40.539548 426.803407,30.1714689 426.875,30.0997175 C426.946593,30.0279661 432.42348,29.9920904 439.04586,30.0638418 L451.073532,30.1714689 L451.073532,58.4415254 L451.073532,86.7474576 L448.675157,88.8641243 C447.314885,90.0480226 444.952306,92.1288136 443.377254,93.4562147 C441.802201,94.8194915 440.441929,96.0392655 440.334539,96.1468927 C440.227149,96.2545198 439.511216,96.8644068 438.72369,97.5460452 C437.936164,98.2276836 436.325314,99.5909605 435.144025,100.631356 C432.53087,102.891525 427.125577,107.591243 424.727201,109.672034 C423.760692,110.497175 422.472013,111.645198 421.86347,112.183333 C421.21913,112.721469 420.252621,113.582486 419.715671,114.04887 C419.142925,114.515254 417.567872,115.914407 416.171803,117.134181 C413.272275,119.64548 411.697222,120.90113 411.375052,120.90113 C411.267662,120.90113 410.12217,119.968362 408.833491,118.856215 Z" id="Path"></path>
                    <path d="M221.080084,100.200847 C219.433438,100.057345 214.779874,99.1245763 213.204822,98.5864407 C207.871122,96.7926554 201.893082,93.0257062 198.671384,89.4022599 C196.595178,87.070339 194.2326,83.3392655 192.83653,80.2539548 C191.010901,76.1641243 190.294969,73.3658192 189.722222,67.6974576 C189.364256,64.3610169 189.364256,62.6389831 189.722222,59.2666667 C190.187579,54.9615819 190.688732,52.3067797 191.225681,51.2305085 C191.404665,50.8717514 191.547851,50.3336158 191.547851,50.0107345 C191.547851,49.1855932 193.731447,44.5935028 195.306499,42.1180791 C198.38501,37.2748588 202.072065,33.9025424 207.369969,31.1042373 C212.202516,28.4853107 216.354927,27.3014124 223.156289,26.5121469 C229.492296,25.7946328 239.014203,27.1579096 245.779769,29.7768362 C248.357128,30.7454802 252.724319,33.1132768 253.440252,33.8666667 L254.299371,34.799435 L253.368658,37.5618644 C251.865199,42.0822034 250.89869,44.9881356 250.57652,45.7415254 C250.433333,46.1361582 249.967977,47.4635593 249.574214,48.6833333 C248.285535,52.7731638 248.034958,52.9525424 245.063836,51.6251412 C240.696646,49.6878531 232.85718,48.0734463 227.774057,48.0734463 C222.583543,48.0734463 219.182862,49.7596045 217.500419,53.239548 C215.88957,56.5759887 214.207128,56.3248588 237.689727,56.3248588 C249.037264,56.3248588 258.487579,56.4683616 258.702358,56.6118644 C260.205818,57.6163842 260.170021,68.379096 258.666562,75.1596045 C255.874423,87.5725989 247.927568,96.3262712 236.830608,99.1963277 C232.821384,100.272599 226.413784,100.667232 221.080084,100.200847 Z M229.420702,78.3525424 C232.177044,77.2045198 234.181656,74.3344633 234.289046,71.4285311 L234.324843,69.7782486 L225.554665,69.7782486 L216.784486,69.7782486 L216.677096,70.9621469 C216.53391,72.5048023 218.180556,75.8771186 219.612421,76.9175141 C220.686321,77.670904 221.903407,78.3166667 223.048899,78.6754237 C224.265985,79.1059322 228.16782,78.890678 229.420702,78.3525424 Z" id="Shape"></path>
                    <path d="M483.469497,100.236723 C481.787055,99.9855932 477.45566,99.0169492 476.668134,98.6940678 C470.761688,96.2545198 466.859853,93.2409605 463.602358,88.4694915 C462.170493,86.3169492 460.309067,82.55 459.700524,80.3615819 C459.449948,79.4646893 459.091981,78.3525424 458.912998,77.8502825 C457.839099,74.5855932 457.481132,70.5316384 457.588522,64.0022599 C457.731709,56.0019774 458.411845,52.7731638 460.989203,47.3559322 C462.922222,43.3378531 465.392191,40.0731638 468.506499,37.490113 C470.904874,35.5169492 475.343658,33.0774011 477.849423,32.359887 C478.672746,32.1087571 480.033019,31.7141243 480.892138,31.4988701 C481.787055,31.2118644 484.5076,31.0324859 487.765094,31.0324859 C492.418658,31.0324859 493.456761,31.140113 495.60456,31.8576271 C498.432495,32.8262712 501.654193,34.7635593 502.262736,35.8757062 C502.584906,36.4855932 502.763889,36.5573446 503.193449,36.1985876 C503.909382,35.6245763 503.479822,30.8531073 502.549109,28.8081921 C501.5826,26.7632768 499.470597,24.6466102 497.179612,23.4268362 C495.353983,22.4940678 495.103407,22.4581921 489.912893,22.4581921 C486.118449,22.4940678 483.75587,22.6734463 482.037631,23.1039548 C478.994916,23.8573446 475.343658,25.0771186 474.878302,25.5076271 C474.699319,25.6870056 474.341352,25.8305085 474.054979,25.8305085 C473.804403,25.8305085 472.300943,26.6556497 470.761688,27.6601695 C469.186635,28.6646893 467.647379,29.4180791 467.361006,29.3463277 C466.609277,29.2028249 466.000734,28.0548023 464.533071,24.1443503 C464.246698,23.319209 463.673952,21.9559322 463.315985,21.0949153 C461.490356,16.969209 460.022694,13.0228814 460.022694,12.2336158 C460.022694,9.61468927 468.363312,5.45310734 476.668134,3.91045198 C489.805503,1.50677966 501.04565,2.43954802 510.746541,6.81638418 C517.36892,9.8299435 523.9913,16.0364407 526.568658,21.7048023 C529.43239,27.9112994 529.21761,24.9694915 529.360797,63.3923729 L529.503983,97.9048023 L528.752254,98.299435 C528.215304,98.5864407 525.530556,98.6581921 520.375839,98.5864407 C511.856237,98.4788136 512.428983,98.6581921 510.495964,95.5011299 C509.887421,94.4607345 509.314675,93.6355932 509.243082,93.6355932 C509.207285,93.6355932 508.348166,94.2813559 507.417453,95.0706215 C504.875891,97.1872881 501.904769,98.550565 497.609172,99.5550847 C495.353983,100.09322 485.724686,100.559605 483.469497,100.236723 Z M498.790461,75.8053672 C499.506394,75.4824859 500.83087,74.4779661 501.68999,73.509322 C503.623008,71.3567797 503.837788,70.2805085 503.623008,62.7466102 C503.515618,57.9751412 503.444025,57.4728814 502.656499,56.3248588 C500.580294,53.3112994 498.575681,52.3426554 494.53066,52.3426554 C492.239675,52.3426554 491.344759,52.4861582 490.235063,53.0960452 C487.049161,54.8539548 485.474109,57.4370056 484.758176,62.0649718 C484.07804,66.3341808 485.116143,70.7468927 487.442925,73.509322 C489.877096,76.4152542 494.709644,77.3838983 498.790461,75.8053672 Z" id="Shape"></path>
                    <path d="M80.5066562,98.4070621 C79.7907233,98.2276836 79.6475367,96.9002825 80.1844864,95.859887 C80.4708595,95.3217514 81.7595388,91.2677966 82.8334382,87.5367232 C83.0124214,86.8550847 83.2987945,85.9581921 83.4419811,85.5635593 C83.5851677,85.1689266 83.9789308,83.8774011 84.3368973,82.6935028 C84.6948637,81.5096045 85.2318134,79.6440678 85.5897799,78.5677966 C85.9119497,77.4915254 86.6636792,75.1596045 87.2006289,73.3658192 C87.7375786,71.6079096 88.3103249,69.8141243 88.4535115,69.4194915 C88.6324948,69.0248588 89.0978512,67.4822034 89.5274109,66.0112994 C89.9569706,64.5403955 90.6729036,62.2084746 91.13826,60.809322 C91.8183962,58.6567797 92.749109,55.5714689 94.2525681,50.5847458 C94.467348,49.9031073 94.7537212,49.0062147 94.8969078,48.6115819 C95.0400943,48.2169492 95.6128407,46.4590395 96.1497904,44.6652542 C96.68674,42.9073446 97.402673,40.539548 97.7606394,39.4632768 C98.1186059,38.3870056 98.8345388,36.0550847 99.3714885,34.2612994 C100.874948,29.2745763 101.161321,28.7723164 102.915356,28.5211864 C103.702883,28.3776836 108.786006,28.3418079 114.155503,28.4135593 C123.892191,28.5211864 123.927987,28.5211864 124.572327,29.3463277 C124.894497,29.8127119 125.39565,30.9248588 125.646226,31.8576271 C125.896803,32.7903955 126.362159,34.440678 126.648532,35.5169492 C126.970702,36.5932203 127.328669,37.8129944 127.471855,38.2076271 C127.650839,38.6022599 127.865618,39.319774 127.973008,39.8220339 C128.151992,40.7548023 128.474161,41.9745763 129.440671,45.2033898 C130.1924,47.7146893 130.550367,48.970339 131.015723,50.6923729 C131.69586,52.9884181 132.053826,54.2799435 132.662369,56.3248588 C133.736268,59.9124294 133.986845,60.809322 134.165828,61.8138418 C134.595388,64.0381356 135.382914,62.9977401 136.6,58.6567797 C136.92217,57.4728814 137.494916,55.4638418 137.888679,54.1723164 C138.246646,52.880791 139.284748,49.2573446 140.179665,46.1002825 C141.074581,42.9432203 142.220073,38.9968927 142.721226,37.3107345 C143.186583,35.6245763 143.759329,33.6155367 143.974109,32.8262712 C144.654245,30.2432203 145.334382,29.059322 146.336688,28.6646893 C146.909434,28.449435 151.276625,28.3418079 157.791614,28.4135593 C167.886268,28.5211864 168.351625,28.5570621 168.745388,29.2387006 C169.246541,30.0997175 170.069864,32.5392655 171.143763,36.2344633 C171.573323,37.7053672 172.074476,39.2480226 172.217662,39.6426554 C172.360849,40.0372881 172.790409,41.3288136 173.112579,42.5127119 C173.470545,43.6966102 173.864308,44.9881356 174.007495,45.3827684 C174.150681,45.7774011 174.651834,47.3200565 175.081394,48.7909605 C175.546751,50.2618644 176.29848,52.7014124 176.763836,54.1723164 C177.229193,55.6432203 177.730346,57.3652542 177.909329,57.9392655 C178.088312,58.5491525 178.804245,60.8810734 179.520178,63.1412429 C181.453197,69.2759887 182.4913,72.7200565 183.350419,75.5183616 C183.744182,76.9175141 184.460115,79.1776836 184.889675,80.5409605 C185.355031,81.940113 185.927778,83.769774 186.178354,84.6666667 C186.428931,85.5635593 187.144864,87.7519774 187.71761,89.509887 C189.686426,95.5011299 190.151782,97.6177966 189.686426,98.1918079 C189.149476,98.8375706 163.161111,98.8734463 161.872432,98.1918079 C160.977516,97.7612994 160.404769,96.1827684 159.366667,91.4830508 C158.400157,87.0344633 156.538732,79.1059322 156.144969,77.670904 C155.965985,77.0968927 155.536426,75.2672316 155.178459,73.6169492 C154.283543,69.4912429 153.78239,69.7782486 152.493711,75.1596045 C151.885168,77.5274011 151.276625,80.0387006 151.097642,80.720339 C150.453302,83.0881356 148.520283,90.9449153 148.23391,92.3799435 C148.054927,93.169209 147.732757,94.6042373 147.553774,95.5728814 C146.837841,98.8016949 147.446384,98.6581921 135.275524,98.6581921 C129.082704,98.6581921 124.285954,98.5146893 123.927987,98.299435 C123.140461,97.9048023 122.675105,96.7567797 121.923375,93.4562147 C121.386426,91.0884181 121.135849,90.119774 120.312526,86.9268362 C120.133543,86.1734463 119.703983,84.5231638 119.41761,83.2316384 C119.09544,81.940113 118.701677,80.3257062 118.522694,79.6440678 C118.343711,78.9624294 117.735168,76.5587571 117.234015,74.370339 C116.697065,72.1460452 116.160115,70.3163842 116.016929,70.3163842 C115.551572,70.3163842 114.835639,72.7200565 113.511164,78.7471751 C112.974214,81.1508475 111.363365,88.0031073 111.005398,89.3305085 C110.826415,90.0121469 110.504245,91.4830508 110.253669,92.559322 C109.394549,96.5415254 108.821803,97.9765537 107.89109,98.3353107 C107.031971,98.6581921 81.7237421,98.7299435 80.5066562,98.4070621 Z" id="Path"></path>
                    <path d="M338.958438,98.2635593 C338.349895,97.940678 338.314099,95.8957627 338.314099,63.4641243 L338.314099,29.059322 L339.280608,28.6646893 C339.889151,28.449435 344.506918,28.3418079 351.809434,28.4135593 C361.653512,28.5211864 363.443344,28.5929379 363.729717,29.059322 C364.195073,29.7768362 364.195073,97.2231638 363.729717,97.940678 C363.443344,98.4070621 361.617715,98.4788136 351.487264,98.550565 C343.719392,98.6223164 339.352201,98.5146893 338.958438,98.2635593 Z" id="Path"></path>
                    <path d="M599.558019,95.0347458 C599.200052,94.8553672 598.913679,94.3172316 598.913679,93.8508475 C598.913679,93.3844633 600.381342,89.4022599 602.171174,84.989548 C606.108805,75.2313559 605.822432,75.8771186 606.753145,73.8322034 C607.182704,72.899435 607.504874,72.0025424 607.504874,71.8949153 C607.504874,71.6437853 608.435587,69.4194915 608.972537,68.4508475 C609.15152,68.0920904 609.294706,67.6615819 609.294706,67.4463277 C609.294706,67.2669492 609.724266,66.190678 610.225419,65.0426554 C610.726572,63.8946328 611.299319,62.6389831 611.442505,62.2443503 C611.585692,61.8497175 613.447117,57.2576271 615.559119,52.019774 C617.635325,46.7819209 619.496751,42.1898305 619.639937,41.7951977 C620.14109,40.5754237 620.642243,39.3556497 621.250786,37.9564972 C621.572956,37.2389831 621.823532,36.5573446 621.823532,36.4497175 C621.823532,36.3420904 622.181499,35.4451977 622.575262,34.5124294 C625.47479,28.0548023 625.58218,27.1937853 623.792348,25.3641243 C622.253092,23.8573446 617.957495,23.6779661 612.910168,24.9694915 C609.68847,25.7946328 609.294706,25.5076271 608.220807,21.5254237 C607.970231,20.6285311 607.576468,19.1935028 607.325891,18.2966102 C607.075314,17.3997175 606.681551,15.9646893 606.430975,15.0677966 C606.180398,14.170904 605.858229,13.0587571 605.715042,12.5564972 C605.536059,12.0542373 605.142296,10.5474576 604.784329,9.14830508 C604.462159,7.78502825 604.0326,6.35 603.853616,5.99124294 C602.887107,4.0539548 605.750839,2.83418079 615.487526,1.11214689 C618.208071,0.609887006 625.26001,0 628.123742,0 C630.378931,0 634.638732,0.645762712 636.858124,1.29152542 C638.934329,1.90141243 642.54979,4.12570621 644.518606,6.02711864 C648.706813,10.1169492 651.534748,14.9601695 655.651363,25.2923729 C656.188312,26.6915254 656.940042,28.4853107 657.298008,29.310452 C657.691771,30.1714689 657.978145,30.9607345 657.978145,31.0683616 C657.978145,31.1759887 658.228721,31.8576271 658.550891,32.5751412 C659.266824,34.2254237 659.231027,34.1536723 661.915776,40.8983051 C663.097065,43.9477401 664.242558,46.7819209 664.385744,47.1765537 C664.851101,48.2528249 665.459644,49.7596045 665.81761,50.6923729 C666.03239,51.1228814 667.321069,54.3875706 668.717138,57.9392655 C670.149004,61.4909605 671.616667,65.0785311 671.974633,65.9036723 C672.3326,66.7646893 672.654769,67.5539548 672.654769,67.6615819 C672.654769,67.769209 672.869549,68.379096 673.155922,68.9889831 C673.406499,69.6347458 674.408805,72.0742938 675.339518,74.4420904 C676.270231,76.809887 677.165147,79.0700565 677.308333,79.4646893 C677.45152,79.859322 678.024266,81.1149718 678.525419,82.2629944 C679.026572,83.4110169 679.456132,84.4872881 679.456132,84.6666667 C679.456132,84.8819209 679.599319,85.3124294 679.778302,85.6711864 C679.957285,85.9940678 680.243658,86.6757062 680.458438,87.1779661 C680.637421,87.680226 681.245964,89.1511299 681.782914,90.4785311 C682.749423,92.8463277 683,94.4966102 682.498847,94.9988701 C682.391457,95.1423729 675.840671,95.2858757 668.001205,95.3576271 L653.75414,95.4652542 L652.859224,94.640113 C652.000105,93.8508475 651.534748,92.4875706 648.42044,82.3347458 C647.955084,80.7562147 647.418134,79.1418079 647.239151,78.7471751 C647.095964,78.3525424 646.773795,77.3121469 646.523218,76.4152542 C646.272642,75.5183616 645.699895,73.6887006 645.270335,72.289548 C644.840776,70.9262712 644.089046,68.5225989 643.62369,66.9440678 C643.050943,65.0426554 642.513994,63.9663842 641.941247,63.6076271 C640.509382,62.6389831 639.793449,63.5717514 638.254193,68.3432203 C637.466667,70.7110169 636.858124,72.8635593 636.858124,73.1146893 C636.858124,73.3658192 636.714937,73.8322034 636.535954,74.1909605 C636.356971,74.5138418 636.070597,75.3748588 635.855818,76.0564972 C634.925105,79.249435 633.457442,83.9850282 632.741509,86.2810734 C632.276153,87.680226 631.56022,90.0121469 631.13066,91.4830508 C629.841981,95.7522599 631.166457,95.4293785 614.521017,95.4293785 C605.428669,95.4293785 599.951782,95.2858757 599.558019,95.0347458 Z" id="Path"></path>
                    <path d="M545.361897,47.3918079 C543.715252,47.1048023 541.102096,45.669774 539.956604,44.4141243 C538.023585,42.2974576 537.522432,40.8983051 537.522432,37.3107345 C537.522432,34.7276836 537.665618,33.5437853 538.202568,32.4675141 C539.133281,30.4943503 540.779927,28.8081921 542.891929,27.6960452 C544.466981,26.9067797 545.147117,26.7632768 548.297222,26.7632768 C551.590514,26.7274011 552.05587,26.7991525 553.953092,27.7677966 C557.49696,29.5615819 559.537369,32.9338983 559.537369,37.0237288 C559.537369,43.0508475 555.635535,47.140678 549.585901,47.499435 C548.082442,47.6070621 546.18522,47.5353107 545.361897,47.3918079 Z" id="Path"></path>
                </g>
            </g>
        </g>
    </g>
</svg>